<?xml version="1.0" encoding="UTF-8" standalone="no"?>
<svg viewBox="0 0 75 42" version="1.1" xmlns="http://www.w3.org/2000/svg" xmlns:xlink="http://www.w3.org/1999/xlink">
    <!-- Generator: Sketch 41.2 (35397) - http://www.bohemiancoding.com/sketch -->
    <title>Shape</title>
    <desc>Created with Sketch.</desc>
    <defs></defs>
    <g id="Page-1" stroke="none" stroke-width="1" fill="none" fill-rule="evenodd">
        <g id="looper-logo-color" transform="translate(-33.000000, -11.000000)" fill="#39B5FD">
            <g id="Group">
                <path d="M106.616,23.132 C105.894,20.557 104.775,18.387 103.258,16.621 C101.741,14.855 99.807,13.512 97.456,12.591 C95.105,11.671 92.3,11.21 89.041,11.21 C85.782,11.21 82.984,11.671 80.646,12.591 C79.198,13.161 77.925,13.913 76.787,14.806 C76.672,14.878 76.557,14.96 76.444,15.062 C76.4,15.102 76.358,15.14 76.315,15.179 C76.132,15.336 75.955,15.5 75.781,15.666 C73.994,17.309 72.663,18.74 70.405,22.671 C68.078,18.621 66.736,17.225 64.866,15.516 C64.777,15.433 64.688,15.351 64.597,15.271 C64.521,15.202 64.444,15.132 64.366,15.062 C64.237,14.945 64.106,14.855 63.973,14.777 C62.846,13.896 61.582,13.154 60.143,12.59 C57.792,11.67 54.987,11.209 51.728,11.209 C48.469,11.209 45.671,11.67 43.332,12.59 C40.993,13.511 39.06,14.854 37.53,16.62 C36,18.387 34.875,20.556 34.154,23.131 C33.432,25.705 33.072,28.66 33.072,31.993 C33.072,35.326 33.432,38.293 34.154,40.891 C34.875,43.492 36.001,45.674 37.53,47.44 C39.06,49.207 40.993,50.55 43.332,51.47 C45.67,52.39 48.469,52.851 51.728,52.851 C54.986,52.851 57.792,52.39 60.143,51.47 C61.03,51.122 61.838,50.696 62.607,50.228 C62.609,50.236 62.619,50.254 62.62,50.259 C65.983,48.27 68.073,45.046 70.405,40.485 C72.557,44.694 74.509,47.758 77.438,49.77 C77.443,49.773 77.448,49.776 77.453,49.78 C77.694,49.945 77.935,50.109 78.19,50.259 C78.191,50.255 78.199,50.239 78.201,50.235 C78.965,50.7 79.767,51.125 80.646,51.47 C82.984,52.39 85.782,52.851 89.041,52.851 C92.299,52.851 95.105,52.39 97.456,51.47 C99.807,50.55 101.741,49.206 103.258,47.44 C104.775,45.674 105.895,43.492 106.616,40.891 C107.337,38.292 107.698,35.326 107.698,31.993 C107.698,28.66 107.337,25.707 106.616,23.132 Z M64.446,33.86 C60.666,40.722 58.58,42.946 58.58,42.946 L58.548,42.946 C57.982,43.57 57.309,44.088 56.505,44.473 C55.286,45.059 53.693,45.351 51.729,45.351 C49.789,45.351 48.209,45.059 46.99,44.473 C45.771,43.888 44.819,43.029 44.136,41.895 C43.451,40.761 42.991,39.368 42.756,37.71 C42.519,36.054 42.401,34.142 42.401,31.974 C42.401,29.832 42.519,27.933 42.756,26.276 C42.992,24.62 43.452,23.225 44.136,22.091 C44.82,20.958 45.771,20.099 46.99,19.513 C48.209,18.927 49.788,18.635 51.729,18.635 C53.694,18.635 55.286,18.927 56.505,19.513 C56.844,19.676 57.157,19.865 57.453,20.07 L57.461,20.07 C57.461,20.07 61.054,21.845 65.855,31.279 L65.854,31.281 L65.858,31.28 L69.573,38.646 L64.446,33.86 Z M98.016,37.711 C97.779,39.368 97.326,40.762 96.653,41.896 C95.982,43.03 95.036,43.889 93.818,44.474 C92.599,45.06 91.006,45.352 89.042,45.352 C87.102,45.352 85.522,45.06 84.303,44.474 C83.499,44.088 82.823,43.571 82.251,42.947 L82.232,42.947 C82.232,42.947 79.248,39.371 74.956,31.281 L74.953,31.282 L71.366,24.315 L76.3,28.78 C80.634,20.863 83.351,20.072 83.351,20.072 L83.354,20.072 C83.652,19.867 83.965,19.677 84.304,19.515 C85.523,18.929 87.102,18.637 89.043,18.637 C91.008,18.637 92.6,18.929 93.819,19.515 C95.038,20.1 95.984,20.96 96.654,22.093 C97.326,23.227 97.779,24.621 98.017,26.278 C98.252,27.935 98.371,29.835 98.371,31.976 C98.37,34.143 98.251,36.055 98.016,37.711 Z" id="Shape"></path>
            </g>
        </g>
    </g>
</svg>
